<svg width="58" height="58" viewBox="0 0 58 58" fill="none" xmlns="http://www.w3.org/2000/svg">
<g id="Scan" filter="url(#filter0_d_1_115)">
<path id="Vector (Stroke)" fill-rule="evenodd" clip-rule="evenodd" d="M26.2314 20.8182C23.3787 20.8182 21.0661 22.8533 21.0661 25.3636H19C19 21.8491 22.2376 19 26.2314 19H31.7686C35.7624 19 39 21.8491 39 25.3636H36.9339C36.9339 22.8533 34.6213 20.8182 31.7686 20.8182H26.2314ZM21.0661 32.6364C21.0661 35.1467 23.3787 37.1818 26.2314 37.1818H31.7686C34.6213 37.1818 36.9339 35.1467 36.9339 32.6364H39C39 36.1509 35.7624 39 31.7686 39H26.2314C22.2376 39 19 36.1509 19 32.6364H21.0661Z" fill="#7A91D2"/>
</g>
<defs>
<filter id="filter0_d_1_115" x="17" y="17" width="24" height="24" filterUnits="userSpaceOnUse" color-interpolation-filters="sRGB">
<feFlood flood-opacity="0" result="BackgroundImageFix"/>
<feColorMatrix in="SourceAlpha" type="matrix" values="0 0 0 0 0 0 0 0 0 0 0 0 0 0 0 0 0 0 127 0" result="hardAlpha"/>
<feOffset/>
<feGaussianBlur stdDeviation="1"/>
<feColorMatrix type="matrix" values="0 0 0 0 0.0338542 0 0 0 0 0.0677083 0 0 0 0 0.1625 0 0 0 0.4 0"/>
<feBlend mode="normal" in2="BackgroundImageFix" result="effect1_dropShadow_1_115"/>
<feBlend mode="normal" in="SourceGraphic" in2="effect1_dropShadow_1_115" result="shape"/>
</filter>
</defs>
</svg>
